# Blender v2.79 (sub 0) OBJ File: 'vegetation.blend'
# www.blender.org
mtllib vege5.mtl
o vege5_Untitled.001
v 0.203047 0.026776 -0.364243
v 0.039429 0.019209 -0.426208
v -0.120315 0.042649 -0.358730
v -0.182610 0.083364 -0.201334
v -0.110966 0.117504 -0.046220
v 0.052649 0.125072 0.015749
v 0.212393 0.101631 -0.051731
v 0.274685 0.060916 -0.209127
v 0.049200 0.137278 -0.225086
v 0.103254 0.132339 0.056689
v -0.058521 0.141582 -0.010017
v -0.220442 0.128270 0.054982
v -0.287659 0.100205 0.213612
v -0.220797 0.073824 0.372944
v -0.059022 0.064584 0.439655
v 0.102898 0.077894 0.374653
v 0.170116 0.105960 0.216024
v -0.060458 0.169426 0.229185
v 0.374523 0.050012 0.098762
v 0.342827 0.047667 -0.073568
v 0.199684 0.062118 -0.173500
v 0.028951 0.084901 -0.142496
v -0.069363 0.102668 0.001282
v -0.037667 0.105012 0.173609
v 0.105474 0.090562 0.273540
v 0.276211 0.067780 0.242538
v 0.162743 0.143173 0.046897
v -0.065876 0.141926 -0.059267
v -0.154793 0.127230 -0.209288
v -0.319878 0.091977 -0.251490
v -0.464424 0.056816 -0.161144
v -0.503754 0.042344 0.008821
v -0.414841 0.057039 0.158843
v -0.249756 0.092293 0.201042
v -0.105209 0.127454 0.110699
v -0.303741 0.157652 -0.022433
v 0.173008 0.173384 -0.019041
v 0.117461 0.155542 -0.224737
v -0.067838 0.144253 -0.330772
v -0.274405 0.146137 -0.274891
v -0.381166 0.160091 -0.090132
v -0.325663 0.177923 0.115487
v -0.140380 0.189226 0.221494
v 0.066202 0.187330 0.165754
v -0.106192 0.248787 -0.063265
vt 0.322192 0.463456
vt 0.274399 0.463427
vt 0.300245 0.401136
vt 0.240625 0.429612
vt 0.240654 0.381819
vt 0.274469 0.348045
vt 0.322261 0.348074
vt 0.356036 0.381889
vt 0.356007 0.429681
vt 0.322192 0.463456
vt 0.274399 0.463427
vt 0.300245 0.401136
vt 0.240625 0.429612
vt 0.240654 0.381819
vt 0.274469 0.348045
vt 0.322261 0.348074
vt 0.356036 0.381889
vt 0.356007 0.429681
vt 0.322192 0.340789
vt 0.274399 0.340760
vt 0.300245 0.278469
vt 0.240625 0.306945
vt 0.240654 0.259152
vt 0.274469 0.225378
vt 0.322261 0.225407
vt 0.356036 0.259222
vt 0.356007 0.307015
vt 0.322192 0.463456
vt 0.274399 0.463427
vt 0.300245 0.401136
vt 0.240625 0.429612
vt 0.240654 0.381819
vt 0.274469 0.348045
vt 0.322261 0.348074
vt 0.356036 0.381889
vt 0.356007 0.429681
vt 0.322192 0.340789
vt 0.274399 0.340760
vt 0.300245 0.278469
vt 0.240625 0.306945
vt 0.240654 0.259152
vt 0.274469 0.225378
vt 0.322261 0.225407
vt 0.356036 0.259222
vt 0.356007 0.307015
vn 0.2406 0.8719 -0.4264
vn 0.0335 0.8612 -0.5072
vn 0.0438 0.9706 -0.2365
vn -0.1686 0.8926 -0.4182
vn -0.2422 0.9455 -0.2175
vn -0.1508 0.9882 -0.0258
vn 0.0498 0.9975 0.0498
vn 0.2461 0.9687 -0.0325
vn 0.3267 0.9172 -0.2279
vn 0.1866 0.9819 -0.0340
vn -0.0119 0.9932 -0.1157
vn -0.0138 0.9852 0.1706
vn -0.2111 0.9768 -0.0369
vn -0.2977 0.9413 0.1594
vn -0.2170 0.9069 0.3610
vn -0.0129 0.8950 0.4459
vn 0.1898 0.9129 0.3613
vn 0.2705 0.9490 0.1618
vn 0.3972 0.9174 0.0257
vn 0.3581 0.9142 -0.1895
vn 0.1266 0.9913 -0.0370
vn 0.1786 0.9328 -0.3131
vn -0.0330 0.9616 -0.2726
vn -0.1530 0.9837 -0.0947
vn -0.1139 0.9866 0.1170
vn 0.0619 0.9687 0.2405
vn 0.2735 0.9401 0.2037
vn 0.0643 0.9979 -0.0107
vn -0.0443 0.9798 -0.1948
vn -0.2194 0.9751 0.0333
vn -0.2499 0.9353 -0.2506
vn -0.4361 0.8888 -0.1410
vn -0.4892 0.8689 0.0753
vn -0.3731 0.8892 0.2649
vn -0.1625 0.9358 0.3129
vn 0.0164 0.9801 0.1979
vn 0.2668 0.9628 -0.0431
vn 0.2124 0.9443 -0.2515
vn -0.0137 0.9964 -0.0837
vn 0.0241 0.9323 -0.3609
vn -0.1868 0.9340 -0.3045
vn -0.2951 0.9485 -0.1151
vn -0.2366 0.9671 0.0932
vn -0.0487 0.9788 0.1992
vn 0.1590 0.9769 0.1431
usemtl Trees.001
s 1
f 1/1/1 2/2/2 9/3/3
f 2/2/2 3/4/4 9/3/3
f 3/4/4 4/5/5 9/3/3
f 4/5/5 5/6/6 9/3/3
f 5/6/6 6/7/7 9/3/3
f 6/7/7 7/8/8 9/3/3
f 7/8/8 8/9/9 9/3/3
f 8/9/9 1/1/1 9/3/3
f 10/10/10 11/11/11 18/12/12
f 11/11/11 12/13/13 18/12/12
f 12/13/13 13/14/14 18/12/12
f 13/14/14 14/15/15 18/12/12
f 14/15/15 15/16/16 18/12/12
f 15/16/16 16/17/17 18/12/12
f 16/17/17 17/18/18 18/12/12
f 17/18/18 10/10/10 18/12/12
f 19/19/19 20/20/20 27/21/21
f 20/20/20 21/22/22 27/21/21
f 21/22/22 22/23/23 27/21/21
f 22/23/23 23/24/24 27/21/21
f 23/24/24 24/25/25 27/21/21
f 24/25/25 25/26/26 27/21/21
f 25/26/26 26/27/27 27/21/21
f 26/27/27 19/19/19 27/21/21
f 28/28/28 29/29/29 36/30/30
f 29/29/29 30/31/31 36/30/30
f 30/31/31 31/32/32 36/30/30
f 31/32/32 32/33/33 36/30/30
f 32/33/33 33/34/34 36/30/30
f 33/34/34 34/35/35 36/30/30
f 34/35/35 35/36/36 36/30/30
f 35/36/36 28/28/28 36/30/30
f 37/37/37 38/38/38 45/39/39
f 38/38/38 39/40/40 45/39/39
f 39/40/40 40/41/41 45/39/39
f 40/41/41 41/42/42 45/39/39
f 41/42/42 42/43/43 45/39/39
f 42/43/43 43/44/44 45/39/39
f 43/44/44 44/45/45 45/39/39
f 44/45/45 37/37/37 45/39/39
