# Blender v2.79 (sub 0) OBJ File: 'trunk.blend'
# www.blender.org
mtllib trunk_shard7.mtl
o Cylinder_cell.007_Cylinder_cell.023
v 0.272228 -0.271052 0.388860
v 0.310307 -0.271052 0.300124
v 0.339214 -0.271052 0.207991
v 0.358652 -0.271052 0.113406
v 0.368421 -0.271052 0.017340
v 0.368421 -0.271052 -0.079222
v 0.358652 -0.271052 -0.175288
v 0.339214 -0.271052 -0.269873
v 0.310307 -0.271052 -0.362006
v 0.272227 -0.271052 -0.450742
v 0.274305 0.271880 0.389879
v 0.312477 0.271880 0.300928
v 0.341454 0.271880 0.208571
v 0.360939 0.271880 0.113757
v 0.370732 0.271880 0.017457
v 0.370732 0.271880 -0.079339
v 0.360939 0.271880 -0.175638
v 0.341454 0.271880 -0.270453
v 0.312477 0.271880 -0.362810
v 0.274305 0.271880 -0.451761
v 0.258817 0.271880 -0.479664
v 0.254689 -0.271052 -0.482340
v 0.252924 0.271880 0.428401
v 0.251312 -0.271052 0.426543
v -0.499916 0.271809 0.050549
v -0.503859 -0.271053 0.047325
v 0.258817 0.271880 -0.479664
v 0.254689 -0.271052 -0.482340
v 0.251312 -0.271052 0.426543
v 0.252924 0.271880 0.428401
v -0.499916 0.271809 0.050549
v -0.503859 -0.271053 0.047325
v 0.310307 -0.271052 0.300124
v 0.272228 -0.271052 0.388860
v 0.339214 -0.271052 0.207991
v 0.358652 -0.271052 0.113406
v 0.368421 -0.271052 0.017340
v 0.368421 -0.271052 -0.079222
v 0.358652 -0.271052 -0.175288
v 0.339214 -0.271052 -0.269873
v 0.310307 -0.271052 -0.362006
v 0.272227 -0.271052 -0.450742
v 0.254689 -0.271052 -0.482340
v 0.312477 0.271880 0.300928
v 0.274305 0.271880 0.389879
v 0.341454 0.271880 0.208571
v 0.360939 0.271880 0.113757
v 0.370732 0.271880 0.017457
v 0.370732 0.271880 -0.079339
v 0.360939 0.271880 -0.175638
v 0.341454 0.271880 -0.270453
v 0.312477 0.271880 -0.362810
v 0.274305 0.271880 -0.451761
v 0.258817 0.271880 -0.479664
v 0.251312 -0.271052 0.426543
v 0.252924 0.271880 0.428401
v -0.503859 -0.271053 0.047325
v -0.499916 0.271809 0.050549
vt 0.842093 0.598482
vt 0.542668 0.448201
vt 0.541100 0.446918
vt 0.841452 0.597744
vt 0.844437 0.237320
vt 0.842795 0.236256
vt 0.541100 0.446918
vt 0.542668 0.448201
vt 0.822456 0.900364
vt 0.829805 0.900429
vt 0.828864 0.990994
vt 0.821675 0.990931
vt 0.806309 0.900228
vt 0.805567 0.990795
vt 0.790163 0.900099
vt 0.789460 0.990667
vt 0.774016 0.899977
vt 0.773352 0.990545
vt 0.757870 0.899862
vt 0.757245 0.990430
vt 0.741723 0.899754
vt 0.741137 0.990323
vt 0.725576 0.899653
vt 0.725029 0.990222
vt 0.709429 0.899559
vt 0.708921 0.990128
vt 0.693283 0.899472
vt 0.692814 0.990041
vt 0.677136 0.899392
vt 0.676706 0.989961
vt 0.850597 0.248418
vt 0.844437 0.237320
vt 0.542668 0.448201
vt 0.842093 0.598482
vt 0.850597 0.583162
vt 0.865779 0.547783
vt 0.877304 0.511050
vt 0.885054 0.473340
vt 0.888949 0.435039
vt 0.888949 0.396541
vt 0.885054 0.358240
vt 0.877304 0.320530
vt 0.865779 0.283797
vt 0.841452 0.597744
vt 0.541100 0.446918
vt 0.842795 0.236256
vt 0.849771 0.248824
vt 0.864916 0.284116
vt 0.876413 0.320760
vt 0.884144 0.358379
vt 0.888029 0.396587
vt 0.888029 0.434992
vt 0.884144 0.473201
vt 0.876413 0.510820
vt 0.864916 0.547463
vt 0.849771 0.582756
vt 0.670677 0.989934
vt 0.671812 0.899368
vn -0.4487 -0.0019 0.8937
vn -0.5726 0.0087 -0.8198
vn 0.8978 -0.0042 0.4404
vn 0.8743 -0.0042 0.4853
vn 0.9377 -0.0042 0.3473
vn 0.9680 -0.0042 0.2506
vn 0.9884 -0.0042 0.1514
vn 0.9987 -0.0042 0.0506
vn 0.9987 -0.0042 -0.0506
vn 0.9884 -0.0042 -0.1514
vn 0.9680 -0.0042 -0.2506
vn 0.9377 -0.0042 -0.3473
vn 0.8978 -0.0042 -0.4404
vn -0.0001 1.0000 0.0000
vn 0.0000 -1.0000 0.0000
vn 0.8743 -0.0042 -0.4853
usemtl None
s off
f 23/1/1 58/2/1 57/3/1 24/4/1
f 21/5/2 22/6/2 26/7/2 25/8/2
f 45/9/3 56/10/4 55/11/4 34/12/3
f 44/13/5 45/9/3 34/12/3 33/14/5
f 46/15/6 44/13/5 33/14/5 35/16/6
f 47/17/7 46/15/6 35/16/6 36/18/7
f 48/19/8 47/17/7 36/18/7 37/20/8
f 49/21/9 48/19/8 37/20/8 38/22/9
f 50/23/10 49/21/9 38/22/9 39/24/10
f 51/25/11 50/23/10 39/24/10 40/26/11
f 52/27/12 51/25/11 40/26/11 41/28/12
f 53/29/13 52/27/12 41/28/12 42/30/13
f 20/31/14 54/32/14 31/33/14 30/34/14 11/35/14 12/36/14 13/37/14 14/38/14 15/39/14 16/40/14 17/41/14 18/42/14 19/43/14
f 29/44/15 32/45/15 43/46/15 10/47/15 9/48/15 8/49/15 7/50/15 6/51/15 5/52/15 4/53/15 3/54/15 2/55/15 1/56/15
f 28/57/16 27/58/16 53/29/13 42/30/13
