# Blender v2.79 (sub 0) OBJ File: 'vegetation.blend'
# www.blender.org
mtllib vege4.mtl
o polySurface1153_Untitled.006
v -0.196303 0.123905 0.477410
v -0.501590 0.091166 0.328921
v -0.512405 0.114229 0.061435
v -0.208198 0.179380 -0.142749
v 0.083424 0.207518 0.033031
v 0.094297 0.184329 0.301983
v -0.180229 -0.000000 0.151709
v -0.321991 0.101223 0.014277
v -0.050179 0.145234 0.037626
v -0.069727 0.128388 0.296957
v -0.341541 0.084377 0.273608
v 0.029026 0.120924 0.333324
v -0.052330 0.135367 0.072943
v 0.100315 0.149763 -0.078089
v 0.390241 0.154018 -0.009066
v 0.447827 0.138424 0.258012
v 0.294347 0.123949 0.409872
v 0.214152 -0.000000 0.151709
v 0.315031 0.118953 0.213292
v 0.057125 0.141027 0.285568
v -0.012671 0.140113 0.017038
v -0.171851 0.104707 -0.200423
v -0.075691 0.076899 -0.389729
v 0.219630 0.076520 -0.416912
v 0.358510 0.113778 -0.185682
v 0.261825 0.141739 0.004661
v 0.104747 0.000000 -0.184868
v -0.033762 0.079709 -0.164877
v 0.072819 0.079709 -0.324127
v 0.223004 0.079709 -0.223614
v 0.116425 0.079709 -0.064364
v 0.252947 0.139345 -0.014472
vt 0.334720 0.152295
vt 0.399183 0.179653
vt 0.336391 0.219882
vt 0.267432 0.176968
vt 0.333483 0.083989
vt 0.267432 0.118322
vt 0.399183 0.120685
vt 0.404963 0.144079
vt 0.471630 0.144079
vt 0.471630 0.206952
vt 0.404963 0.206952
vt 0.334720 0.152295
vt 0.399183 0.179653
vt 0.336391 0.219882
vt 0.267432 0.176968
vt 0.333483 0.083989
vt 0.267432 0.118322
vt 0.399183 0.120685
vt 0.416197 0.206952
vt 0.471630 0.144079
vt 0.471630 0.206952
vt 0.334720 0.152295
vt 0.399183 0.179653
vt 0.336391 0.219882
vt 0.267432 0.176968
vt 0.333483 0.083989
vt 0.267432 0.118322
vt 0.399183 0.120685
vt 0.404963 0.144079
vt 0.471630 0.144079
vt 0.471630 0.206952
vt 0.404963 0.206952
vn -0.3804 0.7733 0.5072
vn 0.1556 0.8501 0.5031
vn 0.0709 0.9335 -0.3516
vn -0.3860 0.8557 -0.3446
vn -0.5896 0.8023 0.0930
vn 0.3075 0.9490 0.0694
vn -0.1639 0.9851 0.0516
vn -0.5578 0.8128 0.1677
vn -0.1524 0.7918 0.5915
vn 0.4739 0.8750 -0.0995
vn 0.1228 0.8792 -0.4603
vn -0.3807 0.8742 -0.3014
vn 0.3172 0.8587 0.4025
vn 0.1021 0.9929 0.0611
vn -0.4069 0.9082 0.0980
vn 0.0313 0.9445 0.3270
vn 0.3450 0.8531 -0.3914
vn -0.0311 0.8126 -0.5820
vn -0.3879 0.8629 -0.3238
vn 0.3517 0.9352 0.0413
vn 0.0000 1.0000 0.0000
usemtl Trees.006
s 1
f 7/1/1 5/2/1 4/3/1
f 3/4/2 7/1/2 4/3/2
f 1/5/3 7/1/3 2/6/3
f 1/5/4 6/7/4 7/1/4
f 7/1/5 6/7/5 5/2/5
f 2/6/6 7/1/6 3/4/6
f 11/8/7 10/9/7 9/10/7 8/11/7
f 18/12/8 16/13/8 15/14/8
f 14/15/9 18/12/9 15/14/9
f 12/16/10 18/12/10 13/17/10
f 12/16/11 17/18/11 18/12/11
f 18/12/12 17/18/12 16/13/12
f 13/17/13 18/12/13 14/15/13
f 32/19/14 20/20/14 19/21/14
f 27/22/15 25/23/15 24/24/15
f 23/25/16 27/22/16 24/24/16
f 21/26/17 27/22/17 22/27/17
f 21/26/18 26/28/18 27/22/18
f 27/22/19 26/28/19 25/23/19
f 22/27/20 27/22/20 23/25/20
f 31/29/21 30/30/21 29/31/21 28/32/21
