# Blender v2.79 (sub 0) OBJ File: 'trunk.blend'
# www.blender.org
mtllib trunk_shard3.mtl
o Cylinder_cell.003_Cylinder_cell.019
v -0.319159 -0.271052 -0.491262
v -0.357238 -0.271052 -0.402526
v -0.386145 -0.271052 -0.310393
v -0.405583 -0.271052 -0.215808
v -0.415351 -0.271052 -0.119742
v -0.415351 -0.271052 -0.023180
v -0.405582 -0.271052 0.072886
v -0.386145 -0.271052 0.167471
v -0.357237 -0.271052 0.259604
v -0.319158 -0.271052 0.348340
v -0.272296 -0.271052 0.432768
v -0.321236 0.271880 -0.492281
v -0.359408 0.271880 -0.403330
v -0.388385 0.271880 -0.310973
v -0.407870 0.271880 -0.216158
v -0.417663 0.271880 -0.119859
v -0.417663 0.271880 -0.023063
v -0.407870 0.271880 0.073237
v -0.388385 0.271880 0.168051
v -0.359408 0.271880 0.260407
v -0.321235 0.271880 0.349359
v -0.274260 0.271880 0.433992
v -0.318609 0.271880 -0.497015
v -0.315172 -0.271052 -0.498444
v 0.475284 0.271807 -0.003599
v -0.234390 0.271880 0.491275
v 0.455026 0.271806 -0.043027
v -0.233360 -0.271052 0.488709
v 0.458776 -0.271053 -0.043905
v 0.478516 -0.271053 -0.003355
v 0.475284 0.271807 -0.003599
v -0.234390 0.271880 0.491275
v -0.318609 0.271880 -0.497015
v -0.315172 -0.271052 -0.498444
v 0.458776 -0.271053 -0.043905
v 0.455026 0.271806 -0.043027
v 0.478516 -0.271053 -0.003355
v -0.233360 -0.271052 0.488709
v -0.357238 -0.271052 -0.402526
v -0.319159 -0.271052 -0.491262
v -0.386145 -0.271052 -0.310393
v -0.405583 -0.271052 -0.215808
v -0.415351 -0.271052 -0.119742
v -0.415351 -0.271052 -0.023180
v -0.405582 -0.271052 0.072886
v -0.386145 -0.271052 0.167471
v -0.357237 -0.271052 0.259604
v -0.319158 -0.271052 0.348340
v -0.272296 -0.271052 0.432768
v -0.233360 -0.271052 0.488709
v -0.359408 0.271880 -0.403330
v -0.321236 0.271880 -0.492281
v -0.388385 0.271880 -0.310973
v -0.407870 0.271880 -0.216158
v -0.417663 0.271880 -0.119859
v -0.417663 0.271880 -0.023063
v -0.407870 0.271880 0.073237
v -0.388385 0.271880 0.168051
v -0.359408 0.271880 0.260407
v -0.321235 0.271880 0.349359
v -0.274260 0.271880 0.433992
v -0.234390 0.271880 0.491275
v -0.318609 0.271880 -0.497015
v -0.315172 -0.271052 -0.498444
v 0.478516 -0.271053 -0.003355
v 0.475284 0.271807 -0.003599
v 0.458776 -0.271053 -0.043905
v 0.455026 0.271806 -0.043027
vt 0.478409 0.426750
vt 0.476917 0.427099
vt 0.484974 0.442781
vt 0.203127 0.638585
vt 0.486260 0.442878
vt 0.484974 0.442781
vt 0.202718 0.639606
vt 0.486260 0.442878
vt 0.170588 0.245968
vt 0.169222 0.246536
vt 0.476917 0.427099
vt 0.478409 0.426750
vt 0.321901 0.899391
vt 0.322804 0.899387
vt 0.323701 0.989955
vt 0.322331 0.989961
vt 0.305754 0.899472
vt 0.306223 0.990041
vt 0.289607 0.899559
vt 0.290116 0.990128
vt 0.273461 0.899653
vt 0.274008 0.990222
vt 0.257314 0.899754
vt 0.257900 0.990322
vt 0.241167 0.899862
vt 0.241793 0.990430
vt 0.225021 0.899977
vt 0.225685 0.990545
vt 0.208874 0.900099
vt 0.209577 0.990666
vt 0.192727 0.900227
vt 0.193470 0.990795
vt 0.176581 0.900363
vt 0.177362 0.990930
vt 0.160434 0.900506
vt 0.161255 0.991073
vt 0.141470 0.511051
vt 0.152995 0.547783
vt 0.168177 0.583162
vt 0.186860 0.616823
vt 0.202718 0.639606
vt 0.484974 0.442781
vt 0.476917 0.427099
vt 0.169222 0.246536
vt 0.168177 0.248419
vt 0.152995 0.283797
vt 0.141470 0.320530
vt 0.133720 0.358240
vt 0.129825 0.396541
vt 0.129825 0.435040
vt 0.133720 0.473341
vt 0.203127 0.638585
vt 0.187641 0.616336
vt 0.169003 0.582757
vt 0.153858 0.547464
vt 0.142361 0.510820
vt 0.134630 0.473201
vt 0.130744 0.434993
vt 0.130744 0.396588
vt 0.134630 0.358380
vt 0.142361 0.320761
vt 0.153858 0.284117
vt 0.169003 0.248824
vt 0.170588 0.245968
vt 0.478409 0.426750
vt 0.486260 0.442878
vt 0.149886 0.991178
vt 0.148792 0.900614
vn 0.8894 0.0069 -0.4570
vn 0.5703 0.0005 0.8214
vn 0.8991 0.0052 -0.4377
vn 0.5063 0.0052 -0.8624
vn -0.8978 -0.0042 -0.4404
vn -0.8743 -0.0042 -0.4853
vn -0.9377 -0.0042 -0.3473
vn -0.9680 -0.0042 -0.2506
vn -0.9884 -0.0042 -0.1514
vn -0.9987 -0.0042 -0.0506
vn -0.9987 -0.0042 0.0506
vn -0.9884 -0.0042 0.1514
vn -0.9680 -0.0042 0.2506
vn -0.9377 -0.0042 0.3473
vn -0.8978 -0.0042 0.4404
vn -0.8486 -0.0042 0.5289
vn 0.0001 1.0000 0.0000
vn 0.0000 -1.0000 0.0000
vn -0.8207 -0.0042 0.5712
usemtl None
s off
f 67/1/1 68/2/1 66/3/1
f 28/4/2 65/5/2 25/6/2 26/7/2
f 30/8/3 67/1/3 66/3/3
f 24/9/4 23/10/4 27/11/4 35/12/4
f 52/13/5 63/14/6 64/15/6 40/16/5
f 51/17/7 52/13/5 40/16/5 39/18/7
f 53/19/8 51/17/7 39/18/7 41/20/8
f 54/21/9 53/19/8 41/20/8 42/22/9
f 55/23/10 54/21/9 42/22/9 43/24/10
f 56/25/11 55/23/10 43/24/10 44/26/11
f 57/27/12 56/25/11 44/26/11 45/28/12
f 58/29/13 57/27/12 45/28/12 46/30/13
f 59/31/14 58/29/13 46/30/13 47/32/14
f 60/33/15 59/31/14 47/32/14 48/34/15
f 61/35/16 60/33/15 48/34/15 49/36/16
f 19/37/17 20/38/17 21/39/17 22/40/17 62/41/17 31/42/17 36/43/17 33/44/17 12/45/17 13/46/17 14/47/17 15/48/17 16/49/17 17/50/17 18/51/17
f 50/52/18 11/53/18 10/54/18 9/55/18 8/56/18 7/57/18 6/58/18 5/59/18 4/60/18 3/61/18 2/62/18 1/63/18 34/64/18 29/65/18 37/66/18
f 38/67/19 32/68/19 61/35/16 49/36/16
