# Blender v2.79 (sub 0) OBJ File: 'knife.blend'
# www.blender.org
mtllib knife.mtl
o Knife_Cylinder.002
v 0.000000 0.682798 -0.334328
v 0.168234 0.682798 -0.265419
v 0.272209 0.682798 -0.085010
v 0.272209 0.682798 0.137986
v 0.168234 0.682798 0.318395
v -0.000000 0.682798 0.387304
v -0.168234 0.682798 0.318395
v -0.272209 0.682798 0.137986
v -0.272209 0.682798 -0.085010
v -0.168234 0.682798 -0.265419
v 0.000000 1.891925 -0.445506
v 0.220072 1.891925 -0.355363
v 0.356084 1.891925 -0.119366
v 0.356084 1.891925 0.172342
v 0.220072 1.891925 0.408339
v -0.000000 1.891925 0.498482
v -0.220072 1.891925 0.408339
v -0.356084 1.891925 0.172342
v -0.356084 1.891925 -0.119366
v -0.220072 1.891925 -0.355363
v 0.168234 1.844783 -0.265419
v 0.272209 1.844783 -0.085010
v 0.272209 1.844783 0.137986
v 0.168234 1.844783 0.318395
v -0.000000 1.844783 0.387304
v -0.168234 1.844783 0.318395
v -0.272209 1.844783 0.137986
v -0.272209 1.844783 -0.085010
v -0.168234 1.844783 -0.265419
v 0.000000 1.844783 -0.334328
v -0.014802 -2.767766 0.387019
v -0.147362 0.430583 0.547967
v -0.014802 -2.735894 0.219163
v -0.014802 0.430583 -0.507532
v 0.117759 0.430583 0.547967
v -0.085950 -1.219823 0.576651
v -0.014802 -1.446514 -0.515026
v 0.056347 -1.219823 0.576651
v -0.014802 -2.158689 -0.337019
v 0.027653 -1.982571 0.410922
v -0.057256 -1.982571 0.410922
v -0.229555 0.424732 0.840395
v -0.439627 0.424732 0.630323
v -0.439627 0.689540 0.630323
v -0.229555 0.689540 0.840395
v -0.439627 0.424732 -0.571968
v -0.229555 0.424732 -0.782040
v -0.229555 0.689540 -0.782040
v -0.439627 0.689540 -0.571968
v 0.380940 0.424732 0.630323
v 0.170868 0.424732 0.840395
v 0.170868 0.689540 0.840395
v 0.380940 0.689540 0.630323
v 0.170868 0.424732 -0.782040
v 0.380940 0.424732 -0.571968
v 0.380940 0.689540 -0.571968
v 0.170868 0.689540 -0.782040
v -0.000000 2.243916 -0.378046
v 0.000000 2.162994 -0.445506
v 0.176649 2.243916 -0.305690
v 0.220072 2.162994 -0.355363
v 0.293658 2.243916 -0.102665
v 0.356084 2.162994 -0.119366
v 0.293658 2.243916 0.155641
v 0.356084 2.162994 0.172342
v 0.176649 2.243916 0.358666
v 0.220072 2.162994 0.408339
v -0.000000 2.243916 0.431022
v -0.000000 2.162994 0.498482
v -0.176649 2.243916 0.358666
v -0.220072 2.162994 0.408339
v -0.293658 2.243916 0.155641
v -0.356084 2.162994 0.172342
v -0.293658 2.243916 -0.102665
v -0.356084 2.162994 -0.119366
v -0.176649 2.243916 -0.305690
v -0.220072 2.162994 -0.355363
v -0.220072 1.891925 -0.355363
v 0.000000 1.891925 -0.445506
v -0.356084 1.891925 -0.119366
v -0.356084 1.891925 0.172342
v -0.220072 1.891925 0.408339
v -0.000000 1.891925 0.498482
v 0.220072 1.891925 0.408339
v 0.356084 1.891925 0.172342
v 0.356084 1.891925 -0.119366
v 0.220072 1.891925 -0.355363
v 0.000000 1.844783 -0.334328
v 0.168234 1.844783 -0.265419
v 0.272209 1.844783 -0.085010
v 0.272209 1.844783 0.137986
v 0.168234 1.844783 0.318395
v -0.000000 1.844783 0.387304
v -0.168234 1.844783 0.318395
v -0.272209 1.844783 0.137986
v -0.272209 1.844783 -0.085010
v -0.168234 1.844783 -0.265419
v -0.014802 -2.735894 0.219163
v -0.014802 -2.767766 0.387019
v -0.014802 -2.767766 0.387019
v -0.085950 -1.219823 0.576651
v -0.147362 0.430583 0.547967
v -0.014802 -2.158689 -0.337019
v -0.057256 -1.982571 0.410922
v -0.014802 0.430583 -0.507532
v -0.014802 -1.446514 -0.515026
v 0.117759 0.430583 0.547967
v 0.056347 -1.219823 0.576651
v 0.027653 -1.982571 0.410922
v -0.439627 0.424732 0.630323
v -0.229555 0.424732 0.840395
v -0.229555 0.689540 0.840395
v -0.439627 0.689540 0.630323
v -0.439627 0.689540 -0.571968
v -0.229555 0.689540 -0.782040
v -0.229555 0.424732 -0.782040
v -0.439627 0.424732 -0.571968
v 0.170868 0.689540 -0.782040
v 0.380940 0.689540 -0.571968
v 0.380940 0.424732 -0.571968
v 0.170868 0.424732 -0.782040
v 0.380940 0.689540 0.630323
v 0.170868 0.689540 0.840395
v 0.170868 0.424732 0.840395
v 0.380940 0.424732 0.630323
vt 0.271338 0.075062
vt 0.222230 0.072284
vt 0.210898 0.011566
vt 0.276696 0.007632
vt 0.265114 0.529429
vt 0.210911 0.528336
vt 0.208787 0.456110
vt 0.262619 0.455944
vt 0.207137 0.388591
vt 0.258165 0.389232
vt 0.207586 0.330713
vt 0.255264 0.334428
vt 0.209525 0.274012
vt 0.259247 0.279739
vt 0.212864 0.209556
vt 0.265659 0.215057
vt 0.217151 0.138597
vt 0.269944 0.142958
vt 0.273262 0.663854
vt 0.206612 0.665882
vt 0.212098 0.596166
vt 0.265234 0.598088
vt 0.301196 0.082809
vt 0.271338 0.075062
vt 0.276696 0.007632
vt 0.310873 0.026151
vt 0.296002 0.147302
vt 0.269944 0.142958
vt 0.289542 0.213410
vt 0.265659 0.215057
vt 0.288176 0.276480
vt 0.259247 0.279739
vt 0.289479 0.334653
vt 0.255264 0.334428
vt 0.287498 0.393056
vt 0.258165 0.389232
vt 0.289151 0.457773
vt 0.262619 0.455944
vt 0.289301 0.525258
vt 0.265114 0.529429
vt 0.295067 0.589777
vt 0.265234 0.598088
vt 0.305613 0.645399
vt 0.273262 0.663854
vt 0.577156 0.620020
vt 0.305613 0.645399
vt 0.295067 0.589777
vt 0.572009 0.564948
vt 0.289301 0.525258
vt 0.567429 0.506823
vt 0.289151 0.457773
vt 0.564203 0.443663
vt 0.287498 0.393056
vt 0.562518 0.384299
vt 0.289479 0.334653
vt 0.562016 0.333245
vt 0.288176 0.276480
vt 0.562488 0.283143
vt 0.289542 0.213410
vt 0.564256 0.225384
vt 0.296002 0.147302
vt 0.567762 0.162821
vt 0.301196 0.082809
vt 0.572309 0.104235
vt 0.310873 0.026151
vt 0.577156 0.054087
vt 0.524849 0.688525
vt 0.083975 0.693890
vt 0.082506 0.975820
vt 0.583880 0.980435
vt 0.583880 0.980435
vt 0.082506 0.975820
vt 0.083975 0.693890
vt 0.524849 0.688525
vt 0.524849 0.688525
vt 0.083975 0.693890
vt 0.083975 0.693890
vt 0.524849 0.688525
vt 0.728353 0.733855
vt 0.728353 0.733855
vt 0.774354 0.933879
vt 0.728353 0.733855
vt 0.728353 0.733855
vt 0.774354 0.933879
vt 0.938050 0.741332
vt 0.929303 0.786123
vt 0.929303 0.786123
vt 0.938050 0.741332
vt 0.938050 0.741332
vt 0.703710 0.045855
vt 0.735152 0.045855
vt 0.735152 0.107485
vt 0.703710 0.107485
vt 0.703710 0.491337
vt 0.735152 0.491337
vt 0.735152 0.676383
vt 0.703710 0.676383
vt 0.861447 0.338257
vt 0.829115 0.370590
vt 0.767485 0.370590
vt 0.735152 0.338257
vt 0.735152 0.153210
vt 0.767485 0.120877
vt 0.829114 0.120877
vt 0.861447 0.153210
vt 0.703710 0.153210
vt 0.735152 0.153210
vt 0.735152 0.338257
vt 0.703710 0.338257
vt 0.703710 0.383982
vt 0.735152 0.383982
vt 0.735152 0.445612
vt 0.703710 0.445612
vt 0.703710 0.000130
vt 0.735152 0.000129
vt 0.703710 0.338257
vt 0.671378 0.370590
vt 0.609748 0.370590
vt 0.577415 0.338257
vt 0.577415 0.153210
vt 0.609748 0.120877
vt 0.671378 0.120877
vt 0.703710 0.153210
vt 0.178460 0.654482
vt 0.186706 0.595019
vt 0.187845 0.528754
vt 0.184516 0.456752
vt 0.182239 0.388639
vt 0.180698 0.330154
vt 0.185449 0.272935
vt 0.190300 0.208344
vt 0.192921 0.136801
vt 0.200141 0.073873
vt 0.186398 0.024875
vt 0.138144 0.000129
vt 0.139727 0.190509
vt 0.073589 0.208627
vt 0.021959 0.187294
vt 0.000129 0.135872
vt 0.017610 0.069562
vt 0.070803 0.015854
vn -0.6581 0.0000 -0.7529
vn -0.6246 0.3153 -0.7145
vn 0.0000 0.3167 -0.9485
vn 0.0000 0.0000 -1.0000
vn 0.9660 0.0000 -0.2584
vn 0.9169 0.3147 -0.2453
vn 0.9169 0.3147 0.2453
vn 0.9660 0.0000 0.2584
vn 0.6246 0.3153 0.7145
vn 0.6581 0.0000 0.7529
vn 0.0000 0.3167 0.9485
vn 0.0000 0.0000 1.0000
vn -0.6246 0.3153 0.7145
vn -0.6581 0.0000 0.7529
vn -0.9169 0.3147 0.2453
vn -0.9660 0.0000 0.2584
vn -0.9169 0.3147 -0.2453
vn -0.9660 0.0000 -0.2584
vn 0.6246 0.3153 -0.7145
vn 0.6581 0.0000 -0.7529
vn -0.2949 -0.9056 -0.3047
vn -0.2661 -0.9083 -0.3227
vn 0.0000 -0.9207 -0.3904
vn -0.4525 -0.8850 -0.1097
vn -0.4461 -0.8860 -0.1267
vn -0.4525 -0.8850 0.1097
vn -0.4461 -0.8860 0.1267
vn -0.2949 -0.9056 0.3047
vn -0.2661 -0.9083 0.3227
vn 0.0000 -0.9207 0.3904
vn 0.2949 -0.9056 0.3047
vn 0.2661 -0.9083 0.3227
vn 0.4525 -0.8850 0.1096
vn 0.4461 -0.8860 0.1267
vn 0.4525 -0.8850 -0.1097
vn 0.4461 -0.8860 -0.1267
vn 0.2949 -0.9056 -0.3047
vn 0.2661 -0.9083 -0.3227
vn -0.9967 -0.0187 -0.0786
vn -0.9955 -0.0179 -0.0925
vn -0.9971 -0.0190 -0.0739
vn 0.9971 -0.0190 -0.0739
vn 0.9955 -0.0179 -0.0925
vn 0.9967 -0.0187 -0.0786
vn 0.0000 -0.0954 0.9954
vn 0.0000 0.0174 0.9998
vn 0.0000 -0.1245 0.9922
vn 0.9983 -0.0303 -0.0501
vn -0.9983 -0.0303 -0.0501
vn -0.9981 -0.0463 -0.0390
vn 0.9981 -0.0463 -0.0390
vn 0.0000 -0.0304 0.9995
vn 0.3827 0.0000 0.9239
vn -0.3827 0.0000 0.9239
vn 0.9239 0.0000 -0.3827
vn 0.9239 0.0000 0.3827
vn 0.0000 1.0000 0.0000
vn -0.9239 0.0000 0.3827
vn -0.9239 0.0000 -0.3827
vn -0.3827 0.0000 -0.9239
vn 0.3827 0.0000 -0.9239
vn 0.0000 -1.0000 0.0000
vn 0.0000 0.8647 -0.5022
vn 0.3268 0.8679 -0.3739
vn 0.4718 0.8726 -0.1262
vn 0.4718 0.8726 0.1262
vn 0.3268 0.8679 0.3739
vn 0.0000 0.8647 0.5022
vn -0.3268 0.8679 0.3739
vn -0.4718 0.8726 0.1262
vn -0.4718 0.8726 -0.1262
vn -0.3268 0.8679 -0.3739
usemtl Material.003
s 1
f 78/1/1 77/2/2 59/3/3 11/4/4
f 86/5/5 63/6/6 65/7/7 85/8/8
f 85/8/8 65/7/7 67/9/9 84/10/10
f 84/10/10 67/9/9 69/11/11 83/12/12
f 83/12/12 69/11/11 71/13/13 82/14/14
f 82/14/14 71/13/13 73/15/15 81/16/16
f 81/16/16 73/15/15 75/17/17 80/18/18
f 80/18/18 75/17/17 77/2/2 78/1/1
f 11/19/4 59/20/3 61/21/19 87/22/20
f 87/22/20 61/21/19 63/6/6 86/5/5
f 29/23/21 20/24/22 79/25/23 88/26/23
f 28/27/24 19/28/25 20/24/22 29/23/21
f 27/29/26 18/30/27 19/28/25 28/27/24
f 26/31/28 17/32/29 18/30/27 27/29/26
f 25/33/30 16/34/30 17/32/29 26/31/28
f 24/35/31 15/36/32 16/34/30 25/33/30
f 23/37/33 14/38/34 15/36/32 24/35/31
f 22/39/35 13/40/36 14/38/34 23/37/33
f 21/41/37 12/42/38 13/40/36 22/39/35
f 88/43/23 79/44/23 12/42/38 21/41/37
f 1/45/4 30/46/4 89/47/20 2/48/20
f 2/48/20 89/47/20 90/49/5 3/50/5
f 3/50/5 90/49/5 91/51/8 4/52/8
f 4/52/8 91/51/8 92/53/10 5/54/10
f 5/54/10 92/53/10 93/55/12 6/56/12
f 6/56/12 93/55/12 94/57/14 7/58/14
f 7/58/14 94/57/14 95/59/16 8/60/16
f 8/60/16 95/59/16 96/61/18 9/62/18
f 9/62/18 96/61/18 97/63/1 10/64/1
f 10/64/1 97/63/1 30/65/4 1/66/4
f 101/67/39 102/68/40 105/69/40 37/70/41
f 106/71/42 34/72/43 35/73/43 108/74/44
f 38/75/45 107/76/46 32/77/46 36/78/45
f 40/79/47 38/75/45 36/78/45 104/80/47
f 39/81/48 106/71/42 108/74/44 109/82/48
f 41/83/49 101/67/39 37/70/41 103/84/49
f 99/85/50 41/83/49 103/84/49 98/86/50
f 33/87/51 39/81/48 109/82/48 100/88/51
f 31/89/52 40/79/47 104/80/47
f 124/90/53 52/91/53 112/92/54 111/93/54
f 120/94/55 56/95/55 53/96/56 125/97/56
f 119/98/57 118/99/57 115/100/57 114/101/57 113/102/57 45/103/57 123/104/57 122/105/57
f 110/106/58 44/107/58 49/108/59 117/109/59
f 116/110/60 48/111/60 57/112/61 121/113/61
f 111/93/54 112/92/54 44/107/58 110/106/58
f 48/111/60 116/110/60 117/109/59 49/108/59
f 56/95/55 120/94/55 121/113/61 57/112/61
f 52/91/53 124/90/53 125/114/56 53/115/56
f 46/116/62 47/117/62 54/118/62 55/119/62 50/120/62 51/121/62 42/122/62 43/123/62
f 61/21/19 59/20/3 58/124/63 60/125/64
f 63/6/6 61/21/19 60/125/64 62/126/65
f 65/7/7 63/6/6 62/126/65 64/127/66
f 67/9/9 65/7/7 64/127/66 66/128/67
f 69/11/11 67/9/9 66/128/67 68/129/68
f 71/13/13 69/11/11 68/129/68 70/130/69
f 73/15/15 71/13/13 70/130/69 72/131/70
f 75/17/17 73/15/15 72/131/70 74/132/71
f 77/2/2 75/17/17 74/132/71 76/133/72
f 59/3/3 77/2/2 76/133/72 58/134/63
f 60/135/64 58/134/63 76/133/72 74/132/71 72/136/70 70/137/69 68/138/68 66/139/67 64/140/66 62/141/65
