# Blender v2.79 (sub 0) OBJ File: 'trunk.blend'
# www.blender.org
mtllib trunk_shard8.mtl
o Cylinder_cell.008_Cylinder_cell.024
v -0.190416 -0.271052 0.476037
v -0.094968 -0.271052 0.461415
v -0.001489 -0.271052 0.437212
v 0.089062 -0.271052 0.403675
v 0.175755 -0.271052 0.361150
v 0.257701 -0.271052 0.310073
v 0.334060 -0.271052 0.250967
v 0.404047 -0.271052 0.184439
v 0.466944 -0.271052 0.111172
v 0.522107 -0.271052 0.031918
v -0.190182 0.271880 0.478340
v -0.094502 0.271880 0.463682
v -0.000796 0.271880 0.439420
v 0.089974 0.271880 0.405802
v 0.176878 0.271880 0.363174
v 0.259023 0.271880 0.311972
v 0.335567 0.271880 0.252723
v 0.405724 0.271880 0.186033
v 0.468774 0.271880 0.112589
v 0.524071 0.271880 0.033142
v 0.548504 0.271880 -0.010879
v 0.547327 -0.271052 -0.013519
v -0.206198 0.271809 -0.389943
v -0.209821 -0.271053 -0.393610
v -0.218764 -0.271053 -0.393420
v -0.320988 0.271807 -0.387455
v -0.312560 0.271806 -0.387680
v -0.319458 -0.271053 -0.390740
v -0.208519 0.271880 0.479270
v -0.206843 -0.271052 0.476870
v 0.547327 -0.271052 -0.013519
v 0.548504 0.271880 -0.010879
v -0.206198 0.271809 -0.389943
v -0.209821 -0.271053 -0.393610
v -0.218764 -0.271053 -0.393420
v -0.320988 0.271807 -0.387455
v -0.312560 0.271806 -0.387680
v -0.208519 0.271880 0.479270
v -0.206843 -0.271052 0.476870
v -0.319458 -0.271053 -0.390740
v -0.094968 -0.271052 0.461415
v -0.190416 -0.271052 0.476037
v -0.001489 -0.271052 0.437212
v 0.089062 -0.271052 0.403675
v 0.175755 -0.271052 0.361150
v 0.257701 -0.271052 0.310073
v 0.334060 -0.271052 0.250967
v 0.404047 -0.271052 0.184439
v 0.466944 -0.271052 0.111172
v 0.522107 -0.271052 0.031918
v 0.547327 -0.271052 -0.013519
v -0.094502 0.271880 0.463682
v -0.190182 0.271880 0.478340
v -0.000796 0.271880 0.439420
v 0.089974 0.271880 0.405802
v 0.176878 0.271880 0.363174
v 0.259023 0.271880 0.311972
v 0.335567 0.271880 0.252723
v 0.405724 0.271880 0.186033
v 0.468774 0.271880 0.112589
v 0.524071 0.271880 0.033142
v 0.548504 0.271880 -0.010879
v -0.320988 0.271807 -0.387455
v -0.319458 -0.271053 -0.390740
v -0.206843 -0.271052 0.476870
v -0.208519 0.271880 0.479270
vt 0.496419 0.448233
vt 0.541209 0.793305
vt 0.540543 0.794260
vt 0.495811 0.449539
vt 0.499163 0.449450
vt 0.541466 0.448550
vt 0.540025 0.447092
vt 0.536468 0.447167
vt 0.841632 0.599314
vt 0.841163 0.598264
vt 0.496419 0.448233
vt 0.495811 0.449539
vt 0.935480 0.901510
vt 0.951626 0.901701
vt 0.950531 0.992265
vt 0.934425 0.992074
vt 0.919334 0.901325
vt 0.918317 0.991890
vt 0.903188 0.901147
vt 0.902210 0.991713
vt 0.887041 0.900977
vt 0.886103 0.991542
vt 0.870895 0.900813
vt 0.869996 0.991379
vt 0.854749 0.900656
vt 0.853889 0.991222
vt 0.838602 0.900506
vt 0.837782 0.991073
vt 0.967771 0.901900
vt 0.966638 0.992463
vt 0.983917 0.902105
vt 0.982745 0.992668
vt 0.986980 0.902146
vt 0.985488 0.992704
vt 0.829113 0.990996
vt 0.830204 0.900432
vt 0.831914 0.616822
vt 0.841632 0.599314
vt 0.541466 0.448550
vt 0.499163 0.449450
vt 0.495811 0.449539
vt 0.540543 0.794260
vt 0.547836 0.793890
vt 0.585890 0.788060
vt 0.623160 0.778410
vt 0.659262 0.765040
vt 0.693826 0.748085
vt 0.726497 0.727721
vt 0.756941 0.704156
vt 0.784844 0.677631
vt 0.809921 0.648421
vt 0.725971 0.726965
vt 0.693379 0.747280
vt 0.658899 0.764194
vt 0.622884 0.777532
vt 0.585705 0.787158
vt 0.547743 0.792974
vt 0.541209 0.793305
vt 0.496419 0.448233
vt 0.536468 0.447167
vt 0.540025 0.447092
vt 0.841163 0.598264
vt 0.831133 0.616336
vt 0.809193 0.647857
vt 0.784177 0.676997
vt 0.756341 0.703457
vn -0.9917 -0.0036 0.1287
vn -0.0213 0.0069 -0.9997
vn 0.4487 0.0032 -0.8937
vn -0.0266 0.0060 -0.9996
vn 0.3943 -0.0042 0.9189
vn 0.2994 -0.0042 0.9541
vn 0.4853 -0.0042 0.8743
vn 0.5712 -0.0042 0.8207
vn 0.6514 -0.0042 0.7588
vn 0.7248 -0.0042 0.6890
vn 0.7908 -0.0042 0.6121
vn 0.8486 -0.0042 0.5289
vn 0.2013 -0.0042 0.9795
vn 0.1011 -0.0042 0.9948
vn 0.0506 -0.0042 0.9987
vn 0.8743 -0.0042 0.4853
vn -0.0000 1.0000 -0.0001
vn 0.0000 -1.0000 0.0000
usemtl None
s off
f 64/1/1 39/2/1 38/3/1 63/4/1
f 27/5/2 23/6/2 24/7/2 35/8/2
f 21/9/3 22/10/3 24/7/3 23/6/3
f 35/8/4 40/11/4 26/12/4 27/5/4
f 55/13/5 54/14/6 43/15/6 44/16/5
f 56/17/7 55/13/5 44/16/5 45/18/7
f 57/19/8 56/17/7 45/18/7 46/20/8
f 58/21/9 57/19/8 46/20/8 47/22/9
f 59/23/10 58/21/9 47/22/9 48/24/10
f 60/25/11 59/23/10 48/24/10 49/26/11
f 61/27/12 60/25/11 49/26/11 50/28/12
f 54/14/6 52/29/13 41/30/13 43/15/6
f 52/29/13 53/31/14 42/32/14 41/30/13
f 53/31/14 66/33/15 65/34/15 42/32/14
f 51/35/16 62/36/16 61/27/12 50/28/12
f 20/37/17 32/38/17 33/39/17 37/40/17 36/41/17 29/42/17 11/43/17 12/44/17 13/45/17 14/46/17 15/47/17 16/48/17 17/49/17 18/50/17 19/51/17
f 6/52/18 5/53/18 4/54/18 3/55/18 2/56/18 1/57/18 30/58/18 28/59/18 25/60/18 34/61/18 31/62/18 10/63/18 9/64/18 8/65/18 7/66/18
