# Blender v2.79 (sub 0) OBJ File: 'trunk.blend'
# www.blender.org
mtllib trunk.mtl
o Cylinder
v 0.000000 0.271052 -0.953239
v 0.096438 0.271052 -0.948348
v 0.191886 0.271052 -0.933726
v 0.285365 0.271052 -0.909522
v 0.375916 0.271052 -0.875986
v 0.462609 0.271052 -0.833461
v 0.544555 0.271052 -0.782383
v 0.620914 0.271052 -0.723277
v 0.690901 0.271052 -0.656750
v 0.753799 0.271052 -0.583483
v 0.808961 0.271052 -0.504229
v 0.855823 0.271052 -0.419800
v 0.893902 0.271052 -0.331064
v 0.922809 0.271052 -0.238931
v 0.942247 0.271052 -0.144346
v 0.952016 0.271052 -0.048280
v 0.952016 0.271052 0.048282
v 0.942247 0.271052 0.144348
v 0.922809 0.271052 0.238933
v 0.893902 0.271052 0.331066
v 0.855822 0.271052 0.419802
v 0.808960 0.271052 0.504230
v 0.753798 0.271052 0.583484
v 0.690900 0.271052 0.656751
v 0.620913 0.271052 0.723279
v 0.544555 0.271052 0.782384
v 0.462608 0.271052 0.833462
v 0.375915 0.271052 0.875987
v 0.285364 0.271052 0.909523
v 0.191885 0.271052 0.933727
v 0.096437 0.271052 0.948349
v -0.000001 0.271052 0.953239
v -0.096438 0.271052 0.948348
v -0.191886 0.271052 0.933726
v -0.285365 0.271052 0.909523
v -0.375916 0.271052 0.875986
v -0.462610 0.271052 0.833461
v -0.544556 0.271052 0.782383
v -0.620914 0.271052 0.723278
v -0.690902 0.271052 0.656750
v -0.753799 0.271052 0.583483
v -0.808961 0.271052 0.504229
v -0.855823 0.271052 0.419800
v -0.893902 0.271052 0.331064
v -0.922809 0.271052 0.238931
v -0.942247 0.271052 0.144346
v -0.952016 0.271052 0.048280
v -0.952016 0.271052 -0.048282
v -0.942246 0.271052 -0.144348
v -0.922809 0.271052 -0.238933
v -0.893902 0.271052 -0.331066
v -0.855822 0.271052 -0.419802
v -0.808960 0.271052 -0.504230
v -0.753798 0.271052 -0.583484
v -0.690900 0.271052 -0.656751
v -0.620913 0.271052 -0.723278
v -0.544554 0.271052 -0.782384
v -0.462608 0.271052 -0.833462
v -0.375914 0.271052 -0.875987
v -0.285363 0.271052 -0.909523
v -0.191884 0.271052 -0.933726
v -0.096436 0.271052 -0.948348
v 0.000000 -0.271880 -0.955553
v 0.096672 -0.271880 -0.950650
v 0.192352 -0.271880 -0.935993
v 0.286058 -0.271880 -0.911730
v 0.376828 -0.271880 -0.878113
v 0.463732 -0.271880 -0.835484
v 0.545877 -0.271880 -0.784283
v 0.622421 -0.271880 -0.725033
v 0.692578 -0.271880 -0.658344
v 0.755628 -0.271880 -0.584899
v 0.810925 -0.271880 -0.505453
v 0.857900 -0.271880 -0.420819
v 0.896072 -0.271880 -0.331868
v 0.925049 -0.271880 -0.239511
v 0.944534 -0.271880 -0.144697
v 0.954327 -0.271880 -0.048397
v 0.954327 -0.271880 0.048399
v 0.944534 -0.271880 0.144698
v 0.925049 -0.271880 0.239512
v 0.896072 -0.271880 0.331869
v 0.857900 -0.271880 0.420821
v 0.810924 -0.271880 0.505454
v 0.755628 -0.271880 0.584900
v 0.692578 -0.271880 0.658345
v 0.622420 -0.271880 0.725034
v 0.545877 -0.271880 0.784284
v 0.463731 -0.271880 0.835485
v 0.376827 -0.271880 0.878113
v 0.286057 -0.271880 0.911731
v 0.192351 -0.271880 0.935993
v 0.096671 -0.271880 0.950651
v -0.000001 -0.271880 0.955553
v -0.096672 -0.271880 0.950651
v -0.192352 -0.271880 0.935993
v -0.286059 -0.271880 0.911730
v -0.376829 -0.271880 0.878113
v -0.463733 -0.271880 0.835484
v -0.545878 -0.271880 0.784283
v -0.622422 -0.271880 0.725033
v -0.692579 -0.271880 0.658344
v -0.755629 -0.271880 0.584900
v -0.810925 -0.271880 0.505452
v -0.857900 -0.271880 0.420820
v -0.896072 -0.271880 0.331868
v -0.925049 -0.271880 0.239511
v -0.944534 -0.271880 0.144697
v -0.954327 -0.271880 0.048397
v -0.954327 -0.271880 -0.048399
v -0.944534 -0.271880 -0.144698
v -0.925049 -0.271880 -0.239513
v -0.896072 -0.271880 -0.331869
v -0.857900 -0.271880 -0.420820
v -0.810924 -0.271880 -0.505454
v -0.755628 -0.271880 -0.584900
v -0.692577 -0.271880 -0.658345
v -0.622420 -0.271880 -0.725034
v -0.545876 -0.271880 -0.784284
v -0.463731 -0.271880 -0.835485
v -0.376827 -0.271880 -0.878113
v -0.286056 -0.271880 -0.911731
v -0.192350 -0.271880 -0.935993
v -0.096670 -0.271880 -0.950650
v 0.002895 -0.271799 0.000000
v 0.000000 0.271053 0.000000
v 0.096438 0.271052 -0.948348
v 0.000000 0.271052 -0.953239
v 0.191886 0.271052 -0.933726
v 0.285365 0.271052 -0.909522
v 0.375916 0.271052 -0.875986
v 0.462609 0.271052 -0.833461
v 0.544555 0.271052 -0.782383
v 0.620914 0.271052 -0.723277
v 0.690901 0.271052 -0.656750
v 0.753799 0.271052 -0.583483
v 0.808961 0.271052 -0.504229
v 0.855823 0.271052 -0.419800
v 0.893902 0.271052 -0.331064
v 0.922809 0.271052 -0.238931
v 0.942247 0.271052 -0.144346
v 0.952016 0.271052 -0.048280
v 0.952016 0.271052 0.048282
v 0.942247 0.271052 0.144348
v 0.922809 0.271052 0.238933
v 0.893902 0.271052 0.331066
v 0.855822 0.271052 0.419802
v 0.808960 0.271052 0.504230
v 0.753798 0.271052 0.583484
v 0.690900 0.271052 0.656751
v 0.620913 0.271052 0.723279
v 0.544555 0.271052 0.782384
v 0.462608 0.271052 0.833462
v 0.375915 0.271052 0.875987
v 0.285364 0.271052 0.909523
v 0.191885 0.271052 0.933727
v 0.096437 0.271052 0.948349
v -0.000001 0.271052 0.953239
v -0.096438 0.271052 0.948348
v -0.191886 0.271052 0.933726
v -0.285365 0.271052 0.909523
v -0.375916 0.271052 0.875986
v -0.462610 0.271052 0.833461
v -0.544556 0.271052 0.782383
v -0.620914 0.271052 0.723278
v -0.690902 0.271052 0.656750
v -0.753799 0.271052 0.583483
v -0.808961 0.271052 0.504229
v -0.855823 0.271052 0.419800
v -0.893902 0.271052 0.331064
v -0.922809 0.271052 0.238931
v -0.942247 0.271052 0.144346
v -0.952016 0.271052 0.048280
v -0.952016 0.271052 -0.048282
v -0.942246 0.271052 -0.144348
v -0.922809 0.271052 -0.238933
v -0.893902 0.271052 -0.331066
v -0.855822 0.271052 -0.419802
v -0.808960 0.271052 -0.504230
v -0.753798 0.271052 -0.583484
v -0.690900 0.271052 -0.656751
v -0.620913 0.271052 -0.723278
v -0.544554 0.271052 -0.782384
v -0.462608 0.271052 -0.833462
v -0.375914 0.271052 -0.875987
v -0.285363 0.271052 -0.909523
v -0.191884 0.271052 -0.933726
v -0.096436 0.271052 -0.948348
v 0.096672 -0.271880 -0.950650
v 0.000000 -0.271880 -0.955553
v 0.192352 -0.271880 -0.935993
v 0.286058 -0.271880 -0.911730
v 0.376828 -0.271880 -0.878113
v 0.463732 -0.271880 -0.835484
v 0.545877 -0.271880 -0.784283
v 0.622421 -0.271880 -0.725033
v 0.692578 -0.271880 -0.658344
v 0.755628 -0.271880 -0.584899
v 0.810925 -0.271880 -0.505453
v 0.857900 -0.271880 -0.420819
v 0.896072 -0.271880 -0.331868
v 0.925049 -0.271880 -0.239511
v 0.944534 -0.271880 -0.144697
v 0.954327 -0.271880 -0.048397
v 0.954327 -0.271880 0.048399
v 0.944534 -0.271880 0.144698
v 0.925049 -0.271880 0.239512
v 0.896072 -0.271880 0.331869
v 0.857900 -0.271880 0.420821
v 0.810924 -0.271880 0.505454
v 0.755628 -0.271880 0.584900
v 0.692578 -0.271880 0.658345
v 0.622420 -0.271880 0.725034
v 0.545877 -0.271880 0.784284
v 0.463731 -0.271880 0.835485
v 0.376827 -0.271880 0.878113
v 0.286057 -0.271880 0.911731
v 0.192351 -0.271880 0.935993
v 0.096671 -0.271880 0.950651
v -0.000001 -0.271880 0.955553
v -0.096672 -0.271880 0.950651
v -0.192352 -0.271880 0.935993
v -0.286059 -0.271880 0.911730
v -0.376829 -0.271880 0.878113
v -0.463733 -0.271880 0.835484
v -0.545878 -0.271880 0.784283
v -0.622422 -0.271880 0.725033
v -0.692579 -0.271880 0.658344
v -0.755629 -0.271880 0.584900
v -0.810925 -0.271880 0.505452
v -0.857900 -0.271880 0.420820
v -0.896072 -0.271880 0.331868
v -0.925049 -0.271880 0.239511
v -0.944534 -0.271880 0.144697
v -0.954327 -0.271880 0.048397
v -0.954327 -0.271880 -0.048399
v -0.944534 -0.271880 -0.144698
v -0.925049 -0.271880 -0.239513
v -0.896072 -0.271880 -0.331869
v -0.857900 -0.271880 -0.420820
v -0.810924 -0.271880 -0.505454
v -0.755628 -0.271880 -0.584900
v -0.692577 -0.271880 -0.658345
v -0.622420 -0.271880 -0.725034
v -0.545876 -0.271880 -0.784284
v -0.463731 -0.271880 -0.835485
v -0.376827 -0.271880 -0.878113
v -0.286056 -0.271880 -0.911731
v -0.192350 -0.271880 -0.935993
v -0.096670 -0.271880 -0.950650
vt 0.935480 0.901510
vt 0.951626 0.901701
vt 0.950531 0.992265
vt 0.934425 0.992074
vt 0.919334 0.901325
vt 0.918317 0.991890
vt 0.903188 0.901147
vt 0.902210 0.991713
vt 0.887041 0.900977
vt 0.886103 0.991542
vt 0.870895 0.900813
vt 0.869996 0.991379
vt 0.854749 0.900656
vt 0.853889 0.991222
vt 0.838602 0.900506
vt 0.837782 0.991073
vt 0.822456 0.900364
vt 0.821675 0.990931
vt 0.806309 0.900228
vt 0.805567 0.990795
vt 0.790163 0.900099
vt 0.789460 0.990667
vt 0.774016 0.899977
vt 0.773352 0.990545
vt 0.757870 0.899862
vt 0.757245 0.990430
vt 0.741723 0.899754
vt 0.741137 0.990323
vt 0.725576 0.899653
vt 0.725029 0.990222
vt 0.709429 0.899559
vt 0.708921 0.990128
vt 0.693283 0.899472
vt 0.692814 0.990041
vt 0.677136 0.899392
vt 0.676706 0.989961
vt 0.660989 0.899319
vt 0.660598 0.989888
vt 0.644842 0.899252
vt 0.644490 0.989822
vt 0.628695 0.899193
vt 0.628382 0.989763
vt 0.612548 0.899141
vt 0.612274 0.989711
vt 0.596401 0.899095
vt 0.596166 0.989666
vt 0.580254 0.899057
vt 0.580058 0.989627
vt 0.564107 0.899026
vt 0.563951 0.989596
vt 0.547960 0.899001
vt 0.547843 0.989572
vt 0.531813 0.898984
vt 0.531735 0.989554
vt 0.515666 0.898973
vt 0.515627 0.989544
vt 0.499518 0.898970
vt 0.499518 0.989540
vt 0.483371 0.898973
vt 0.483411 0.989544
vt 0.467224 0.898984
vt 0.467303 0.989554
vt 0.451077 0.899001
vt 0.451194 0.989572
vt 0.434930 0.899026
vt 0.435087 0.989596
vt 0.418783 0.899057
vt 0.418979 0.989627
vt 0.402636 0.899095
vt 0.402871 0.989666
vt 0.386489 0.899141
vt 0.386763 0.989711
vt 0.370342 0.899193
vt 0.370655 0.989763
vt 0.354195 0.899252
vt 0.354547 0.989822
vt 0.338048 0.899318
vt 0.338439 0.989888
vt 0.321901 0.899391
vt 0.322331 0.989961
vt 0.305754 0.899472
vt 0.306223 0.990041
vt 0.289607 0.899559
vt 0.290116 0.990128
vt 0.273461 0.899653
vt 0.274008 0.990222
vt 0.257314 0.899754
vt 0.257900 0.990322
vt 0.241167 0.899862
vt 0.241793 0.990430
vt 0.225021 0.899977
vt 0.225685 0.990545
vt 0.208874 0.900099
vt 0.209577 0.990666
vt 0.192727 0.900227
vt 0.193470 0.990795
vt 0.176581 0.900363
vt 0.177362 0.990930
vt 0.160434 0.900506
vt 0.161255 0.991073
vt 0.144288 0.900656
vt 0.145148 0.991222
vt 0.128141 0.900813
vt 0.129040 0.991379
vt 0.111995 0.900977
vt 0.112933 0.991542
vt 0.095849 0.901147
vt 0.096826 0.991712
vt 0.079703 0.901325
vt 0.080719 0.991890
vt 0.063557 0.901510
vt 0.064612 0.992074
vt 0.047411 0.901701
vt 0.048505 0.992265
vt 0.031265 0.901900
vt 0.032399 0.992463
vt 0.015119 0.902105
vt 0.016292 0.992668
vt -0.001026 0.902318
vt 0.000185 0.992880
vt 0.967771 0.901900
vt 0.966638 0.992463
vt 0.983917 0.902105
vt 0.982745 0.992668
vt 0.261833 0.704156
vt 0.292277 0.727721
vt 0.510539 0.415790
vt 0.585890 0.043520
vt 0.547836 0.037690
vt 0.623160 0.778410
vt 0.659262 0.765040
vt 0.324948 0.748085
vt 0.509387 0.035741
vt 0.693826 0.748085
vt 0.359513 0.765040
vt 0.470938 0.037691
vt 0.726497 0.727721
vt 0.395615 0.778410
vt 0.432883 0.043520
vt 0.756941 0.704156
vt 0.432884 0.788060
vt 0.395614 0.053170
vt 0.784844 0.677631
vt 0.470939 0.793890
vt 0.359512 0.066541
vt 0.809921 0.648421
vt 0.509387 0.795840
vt 0.324948 0.083495
vt 0.831914 0.616822
vt 0.292276 0.103860
vt 0.850597 0.583162
vt 0.261833 0.127425
vt 0.865779 0.547783
vt 0.233929 0.153949
vt 0.877304 0.511050
vt 0.208853 0.183160
vt 0.885054 0.473340
vt 0.186860 0.214758
vt 0.888949 0.435039
vt 0.168177 0.248419
vt 0.888949 0.396541
vt 0.152995 0.283797
vt 0.885054 0.358240
vt 0.141470 0.320530
vt 0.877304 0.320530
vt 0.133720 0.358240
vt 0.865779 0.283797
vt 0.129825 0.396541
vt 0.850597 0.248418
vt 0.129825 0.435040
vt 0.831914 0.214758
vt 0.133720 0.473341
vt 0.809921 0.183159
vt 0.141470 0.511051
vt 0.784844 0.153948
vt 0.152995 0.547783
vt 0.756940 0.127424
vt 0.168177 0.583162
vt 0.726497 0.103859
vt 0.186860 0.616823
vt 0.693825 0.083495
vt 0.208853 0.648421
vt 0.659261 0.066541
vt 0.547836 0.793890
vt 0.233930 0.677632
vt 0.623159 0.053170
vt 0.585890 0.788060
vt 0.471032 0.792974
vt 0.433069 0.787159
vt 0.509387 0.415790
vt 0.359875 0.067387
vt 0.395889 0.054048
vt 0.809193 0.647857
vt 0.784177 0.676997
vt 0.509387 0.794919
vt 0.325394 0.084300
vt 0.831133 0.616336
vt 0.292802 0.104615
vt 0.849771 0.582756
vt 0.262432 0.128123
vt 0.864916 0.547463
vt 0.234597 0.154583
vt 0.876413 0.510820
vt 0.209581 0.183723
vt 0.884144 0.473201
vt 0.187641 0.215245
vt 0.888029 0.434992
vt 0.169003 0.248824
vt 0.888029 0.396587
vt 0.153858 0.284117
vt 0.884144 0.358379
vt 0.142361 0.320761
vt 0.876413 0.320760
vt 0.134630 0.358380
vt 0.864916 0.284116
vt 0.130744 0.396588
vt 0.849771 0.248824
vt 0.130744 0.434993
vt 0.831133 0.215244
vt 0.134630 0.473201
vt 0.809193 0.183723
vt 0.142361 0.510820
vt 0.784177 0.154583
vt 0.153858 0.547464
vt 0.756341 0.128123
vt 0.169003 0.582757
vt 0.725971 0.104615
vt 0.187641 0.616336
vt 0.693379 0.084300
vt 0.209581 0.647858
vt 0.658898 0.067386
vt 0.547743 0.792974
vt 0.234597 0.676998
vt 0.622884 0.054048
vt 0.585705 0.787158
vt 0.262433 0.703458
vt 0.585705 0.044422
vt 0.622884 0.777532
vt 0.292803 0.726966
vt 0.547742 0.038606
vt 0.658899 0.764194
vt 0.325395 0.747281
vt 0.509387 0.036661
vt 0.693379 0.747280
vt 0.359876 0.764194
vt 0.471031 0.038606
vt 0.725971 0.726965
vt 0.395890 0.777532
vt 0.433068 0.044422
vt 0.756341 0.703457
vt 1.000063 0.902318
vt 0.998851 0.992880
vn 0.3943 0.0042 -0.9189
vn 0.2994 0.0042 -0.9541
vn 0.4853 0.0042 -0.8743
vn 0.5712 0.0042 -0.8207
vn 0.6514 0.0042 -0.7587
vn 0.7248 0.0042 -0.6890
vn 0.7908 0.0042 -0.6121
vn 0.8486 0.0042 -0.5289
vn 0.8978 0.0042 -0.4404
vn 0.9377 0.0042 -0.3473
vn 0.9680 0.0042 -0.2506
vn 0.9884 0.0042 -0.1514
vn 0.9987 0.0042 -0.0506
vn 0.9987 0.0042 0.0506
vn 0.9884 0.0042 0.1514
vn 0.9680 0.0042 0.2506
vn 0.9377 0.0042 0.3473
vn 0.8978 0.0042 0.4404
vn 0.8486 0.0042 0.5289
vn 0.7908 0.0042 0.6121
vn 0.7248 0.0042 0.6890
vn 0.6514 0.0042 0.7588
vn 0.5712 0.0042 0.8207
vn 0.4853 0.0042 0.8743
vn 0.3943 0.0042 0.9189
vn 0.2994 0.0042 0.9541
vn 0.2013 0.0042 0.9795
vn 0.1011 0.0042 0.9948
vn 0.0000 0.0042 1.0000
vn -0.1011 0.0042 0.9948
vn -0.2013 0.0042 0.9795
vn -0.2994 0.0042 0.9541
vn -0.3943 0.0042 0.9189
vn -0.4853 0.0042 0.8743
vn -0.5712 0.0042 0.8207
vn -0.6514 0.0042 0.7587
vn -0.7248 0.0042 0.6890
vn -0.7908 0.0042 0.6121
vn -0.8486 0.0042 0.5289
vn -0.8978 0.0042 0.4404
vn -0.9377 0.0042 0.3473
vn -0.9680 0.0042 0.2506
vn -0.9884 0.0042 0.1514
vn -0.9987 0.0042 0.0506
vn -0.9987 0.0042 -0.0506
vn -0.9884 0.0042 -0.1514
vn -0.9680 0.0042 -0.2506
vn -0.9377 0.0042 -0.3473
vn -0.8978 0.0042 -0.4404
vn -0.8486 0.0042 -0.5289
vn -0.7908 0.0042 -0.6121
vn -0.7248 0.0042 -0.6890
vn -0.6514 0.0042 -0.7588
vn -0.5712 0.0042 -0.8207
vn -0.4853 0.0042 -0.8743
vn -0.3943 0.0042 -0.9189
vn -0.2994 0.0042 -0.9541
vn -0.2013 0.0042 -0.9795
vn -0.1011 0.0042 -0.9948
vn 0.0000 0.0042 -1.0000
vn 0.2013 0.0042 -0.9795
vn 0.1011 0.0042 -0.9948
vn 0.0000 -1.0000 0.0001
vn 0.0000 -1.0000 0.0000
vn 0.0000 -1.0000 -0.0001
vn -0.0001 -1.0000 0.0000
vn 0.0001 -1.0000 -0.0000
vn 0.0000 1.0000 0.0000
usemtl None
s 1
f 193/1/1 192/2/2 130/3/2 131/4/1
f 194/5/3 193/1/1 131/4/1 132/6/3
f 195/7/4 194/5/3 132/6/3 133/8/4
f 196/9/5 195/7/4 133/8/4 134/10/5
f 197/11/6 196/9/5 134/10/5 135/12/6
f 198/13/7 197/11/6 135/12/6 136/14/7
f 199/15/8 198/13/7 136/14/7 137/16/8
f 200/17/9 199/15/8 137/16/8 138/18/9
f 201/19/10 200/17/9 138/18/9 139/20/10
f 202/21/11 201/19/10 139/20/10 140/22/11
f 203/23/12 202/21/11 140/22/11 141/24/12
f 204/25/13 203/23/12 141/24/12 142/26/13
f 205/27/14 204/25/13 142/26/13 143/28/14
f 206/29/15 205/27/14 143/28/14 144/30/15
f 207/31/16 206/29/15 144/30/15 145/32/16
f 208/33/17 207/31/16 145/32/16 146/34/17
f 209/35/18 208/33/17 146/34/17 147/36/18
f 210/37/19 209/35/18 147/36/18 148/38/19
f 211/39/20 210/37/19 148/38/19 149/40/20
f 212/41/21 211/39/20 149/40/20 150/42/21
f 213/43/22 212/41/21 150/42/21 151/44/22
f 214/45/23 213/43/22 151/44/22 152/46/23
f 215/47/24 214/45/23 152/46/23 153/48/24
f 216/49/25 215/47/24 153/48/24 154/50/25
f 217/51/26 216/49/25 154/50/25 155/52/26
f 218/53/27 217/51/26 155/52/26 156/54/27
f 219/55/28 218/53/27 156/54/27 157/56/28
f 220/57/29 219/55/28 157/56/28 158/58/29
f 221/59/30 220/57/29 158/58/29 159/60/30
f 222/61/31 221/59/30 159/60/30 160/62/31
f 223/63/32 222/61/31 160/62/31 161/64/32
f 224/65/33 223/63/32 161/64/32 162/66/33
f 225/67/34 224/65/33 162/66/33 163/68/34
f 226/69/35 225/67/34 163/68/34 164/70/35
f 227/71/36 226/69/35 164/70/35 165/72/36
f 228/73/37 227/71/36 165/72/36 166/74/37
f 229/75/38 228/73/37 166/74/37 167/76/38
f 230/77/39 229/75/38 167/76/38 168/78/39
f 231/79/40 230/77/39 168/78/39 169/80/40
f 232/81/41 231/79/40 169/80/40 170/82/41
f 233/83/42 232/81/41 170/82/41 171/84/42
f 234/85/43 233/83/42 171/84/42 172/86/43
f 235/87/44 234/85/43 172/86/43 173/88/44
f 236/89/45 235/87/44 173/88/44 174/90/45
f 237/91/46 236/89/45 174/90/45 175/92/46
f 238/93/47 237/91/46 175/92/46 176/94/47
f 239/95/48 238/93/47 176/94/47 177/96/48
f 240/97/49 239/95/48 177/96/48 178/98/49
f 241/99/50 240/97/49 178/98/49 179/100/50
f 242/101/51 241/99/50 179/100/50 180/102/51
f 243/103/52 242/101/51 180/102/51 181/104/52
f 244/105/53 243/103/52 181/104/52 182/106/53
f 245/107/54 244/105/53 182/106/53 183/108/54
f 246/109/55 245/107/54 183/108/54 184/110/55
f 247/111/56 246/109/55 184/110/55 185/112/56
f 248/113/57 247/111/56 185/112/56 186/114/57
f 249/115/58 248/113/57 186/114/57 187/116/58
f 250/117/59 249/115/58 187/116/58 188/118/59
f 63/119/60 250/117/59 188/118/59 1/120/60
f 192/2/2 191/121/61 129/122/61 130/3/2
f 191/121/61 64/123/62 2/124/62 129/122/61
f 118/125/63 119/126/63 125/127/64
f 92/128/65 93/129/65 125/127/64
f 66/130/63 67/131/63 125/127/64
f 119/126/63 120/132/63 125/127/64
f 93/129/65 94/133/65 125/127/64
f 67/131/63 68/134/63 125/127/64
f 120/132/63 121/135/63 125/127/64
f 94/133/65 95/136/65 125/127/64
f 68/134/63 69/137/63 125/127/64
f 121/135/63 122/138/63 125/127/64
f 95/136/65 96/139/65 125/127/64
f 69/137/63 70/140/63 125/127/64
f 122/138/63 123/141/63 125/127/64
f 96/139/65 97/142/65 125/127/64
f 70/140/63 71/143/66 125/127/64
f 123/141/63 124/144/63 125/127/64
f 97/142/65 98/145/65 125/127/64
f 71/143/66 72/146/66 125/127/64
f 124/144/63 190/147/63 125/127/64
f 98/145/65 99/148/65 125/127/64
f 72/146/66 73/149/66 125/127/64
f 99/148/65 100/150/65 125/127/64
f 73/149/66 74/151/66 125/127/64
f 100/150/65 101/152/65 125/127/64
f 74/151/66 75/153/66 125/127/64
f 101/152/65 102/154/67 125/127/64
f 75/153/66 76/155/66 125/127/64
f 102/154/67 103/156/67 125/127/64
f 76/155/66 77/157/66 125/127/64
f 103/156/67 104/158/67 125/127/64
f 77/157/66 78/159/66 125/127/64
f 104/158/67 105/160/67 125/127/64
f 78/159/66 79/161/66 125/127/64
f 105/160/67 106/162/67 125/127/64
f 79/161/66 80/163/66 125/127/64
f 106/162/67 107/164/67 125/127/64
f 80/163/66 81/165/66 125/127/64
f 107/164/67 108/166/67 125/127/64
f 81/165/66 82/167/66 125/127/64
f 108/166/67 109/168/67 125/127/64
f 82/167/66 83/169/66 125/127/64
f 109/168/67 110/170/67 125/127/64
f 83/169/66 84/171/66 125/127/64
f 110/170/67 111/172/67 125/127/64
f 84/171/66 85/173/66 125/127/64
f 111/172/67 112/174/67 125/127/64
f 85/173/66 86/175/66 125/127/64
f 112/174/67 113/176/67 125/127/64
f 86/175/66 87/177/65 125/127/64
f 113/176/67 114/178/67 125/127/64
f 87/177/65 88/179/65 125/127/64
f 114/178/67 115/180/67 125/127/64
f 88/179/65 89/181/65 125/127/64
f 115/180/67 116/182/67 125/127/64
f 89/181/65 90/183/65 125/127/64
f 190/147/63 189/184/63 125/127/64
f 116/182/67 117/185/67 125/127/64
f 90/183/65 91/186/65 125/127/64
f 189/184/63 65/187/63 125/127/64
f 117/185/67 118/125/63 125/127/64
f 91/186/65 92/128/65 125/127/64
f 65/187/63 66/130/63 125/127/64
f 62/188/68 61/189/68 126/190/68
f 36/191/68 35/192/68 126/190/68
f 10/193/68 9/194/68 126/190/68
f 128/195/68 62/188/68 126/190/68
f 37/196/68 36/191/68 126/190/68
f 11/197/68 10/193/68 126/190/68
f 38/198/68 37/196/68 126/190/68
f 12/199/68 11/197/68 126/190/68
f 39/200/68 38/198/68 126/190/68
f 13/201/68 12/199/68 126/190/68
f 40/202/68 39/200/68 126/190/68
f 14/203/68 13/201/68 126/190/68
f 41/204/68 40/202/68 126/190/68
f 15/205/68 14/203/68 126/190/68
f 42/206/68 41/204/68 126/190/68
f 16/207/68 15/205/68 126/190/68
f 43/208/68 42/206/68 126/190/68
f 17/209/68 16/207/68 126/190/68
f 44/210/68 43/208/68 126/190/68
f 18/211/68 17/209/68 126/190/68
f 45/212/68 44/210/68 126/190/68
f 19/213/68 18/211/68 126/190/68
f 46/214/68 45/212/68 126/190/68
f 20/215/68 19/213/68 126/190/68
f 47/216/68 46/214/68 126/190/68
f 21/217/68 20/215/68 126/190/68
f 48/218/68 47/216/68 126/190/68
f 22/219/68 21/217/68 126/190/68
f 49/220/68 48/218/68 126/190/68
f 23/221/68 22/219/68 126/190/68
f 50/222/68 49/220/68 126/190/68
f 24/223/68 23/221/68 126/190/68
f 51/224/68 50/222/68 126/190/68
f 25/225/68 24/223/68 126/190/68
f 52/226/68 51/224/68 126/190/68
f 26/227/68 25/225/68 126/190/68
f 53/228/68 52/226/68 126/190/68
f 27/229/68 26/227/68 126/190/68
f 54/230/68 53/228/68 126/190/68
f 28/231/68 27/229/68 126/190/68
f 127/232/68 128/195/68 126/190/68
f 55/233/68 54/230/68 126/190/68
f 29/234/68 28/231/68 126/190/68
f 3/235/68 127/232/68 126/190/68
f 56/236/68 55/233/68 126/190/68
f 30/237/68 29/234/68 126/190/68
f 4/238/68 3/235/68 126/190/68
f 57/239/68 56/236/68 126/190/68
f 31/240/68 30/237/68 126/190/68
f 5/241/68 4/238/68 126/190/68
f 58/242/68 57/239/68 126/190/68
f 32/243/68 31/240/68 126/190/68
f 6/244/68 5/241/68 126/190/68
f 59/245/68 58/242/68 126/190/68
f 33/246/68 32/243/68 126/190/68
f 7/247/68 6/244/68 126/190/68
f 60/248/68 59/245/68 126/190/68
f 34/249/68 33/246/68 126/190/68
f 8/250/68 7/247/68 126/190/68
f 61/189/68 60/248/68 126/190/68
f 35/192/68 34/249/68 126/190/68
f 9/194/68 8/250/68 126/190/68
f 64/123/62 63/251/60 1/252/60 2/124/62
