# Blender v2.79 (sub 0) OBJ File: 'vegetation.blend'
# www.blender.org
mtllib vege2.mtl
o vege2_Untitled.002
v 0.234638 0.075768 -0.053848
v 0.123184 0.094214 -0.251522
v -0.095746 0.099947 -0.312511
v -0.293955 0.089622 -0.201105
v -0.355297 0.069267 0.017470
v -0.243841 0.050812 0.215191
v -0.024916 0.045078 0.276138
v 0.173298 0.055414 0.164734
v -0.059543 0.140383 -0.015332
v 0.402325 0.054708 -0.065496
v 0.306259 0.078347 -0.162867
v 0.169992 0.116951 -0.163715
v 0.073340 0.147905 -0.067540
v 0.072922 0.153076 0.069317
v 0.168982 0.129437 0.166689
v 0.305248 0.090834 0.167534
v 0.401905 0.059880 0.071360
v 0.241085 0.144230 0.001234
v 0.103536 0.042758 -0.173807
v 0.097830 0.041824 -0.310589
v -0.002938 0.036728 -0.403271
v -0.139741 0.030455 -0.397560
v -0.232441 0.026679 -0.296803
v -0.226734 0.027612 -0.160021
v -0.125967 0.032708 -0.067339
v 0.010836 0.038981 -0.073049
v -0.064826 0.075836 -0.235395
v -0.185734 0.051393 0.412403
v -0.053308 0.094591 0.346882
v -0.008686 0.133530 0.203062
v -0.078008 0.145401 0.065202
v -0.220665 0.123249 0.014051
v -0.353088 0.080051 0.079576
v -0.397709 0.041112 0.223392
v -0.328388 0.029242 0.361256
v -0.212263 0.132162 0.216425
v -0.073338 0.129236 0.167940
v -0.082335 0.079351 0.336842
v 0.035656 0.026754 0.456882
v 0.211519 0.002255 0.457752
v 0.342239 0.020205 0.338940
v 0.351234 0.070089 0.170040
v 0.233244 0.122687 0.049994
v 0.057380 0.147186 0.049124
v 0.140255 0.125259 0.271103
vt 0.451187 0.461133
vt 0.403776 0.461104
vt 0.429415 0.399310
vt 0.370271 0.427559
vt 0.370299 0.380148
vt 0.403844 0.346643
vt 0.451256 0.346671
vt 0.484761 0.380216
vt 0.484732 0.427628
vt 0.450646 0.461977
vt 0.403224 0.461949
vt 0.428869 0.400142
vt 0.369712 0.428396
vt 0.369740 0.380975
vt 0.403293 0.347463
vt 0.450714 0.347491
vt 0.484226 0.381043
vt 0.484198 0.428465
vt 0.451200 0.340771
vt 0.402762 0.340742
vt 0.428957 0.277610
vt 0.368531 0.306470
vt 0.368560 0.258032
vt 0.402832 0.223801
vt 0.451270 0.223831
vt 0.485501 0.258102
vt 0.485472 0.306540
vt 0.451200 0.340352
vt 0.402762 0.340322
vt 0.428957 0.277190
vt 0.368531 0.306050
vt 0.368560 0.257612
vt 0.402832 0.223382
vt 0.451270 0.223411
vt 0.485501 0.257682
vt 0.485472 0.306121
vt 0.450646 0.461977
vt 0.403224 0.461949
vt 0.428869 0.400142
vt 0.369712 0.428396
vt 0.369740 0.380975
vt 0.403293 0.347463
vt 0.450714 0.347491
vt 0.484226 0.381043
vt 0.484198 0.428465
vn 0.2221 0.9729 0.0643
vn 0.1391 0.9866 -0.0853
vn 0.0005 0.9958 0.0914
vn -0.0272 0.9909 -0.1316
vn -0.1764 0.9832 -0.0463
vn -0.2199 0.9684 0.1178
vn -0.1354 0.9553 0.2629
vn 0.0260 0.9510 0.3081
vn 0.1742 0.9582 0.2269
vn 0.4471 0.8876 -0.1105
vn 0.3451 0.9103 -0.2284
vn 0.2682 0.9627 -0.0351
vn 0.1887 0.9525 -0.2389
vn 0.0721 0.9898 -0.1228
vn 0.0720 0.9962 0.0483
vn 0.1889 0.9674 0.1688
vn 0.3469 0.9237 0.1627
vn 0.4484 0.8927 0.0453
vn 0.1666 0.9833 0.0728
vn 0.1592 0.9822 -0.0998
vn -0.0451 0.9990 -0.0048
vn 0.0316 0.9759 -0.2157
vn -0.1388 0.9685 -0.2069
vn -0.2531 0.9641 -0.0810
vn -0.2462 0.9652 0.0886
vn -0.1222 0.9712 0.2048
vn 0.0490 0.9787 0.1993
vn -0.1936 0.8976 0.3961
vn -0.0494 0.9422 0.3315
vn -0.2169 0.9578 0.1886
vn 0.0051 0.9839 0.1787
vn -0.0704 0.9972 0.0248
vn -0.2324 0.9720 -0.0332
vn -0.3814 0.9235 0.0408
vn -0.4259 0.8826 0.1990
vn -0.3459 0.8732 0.3432
vn -0.0756 0.9781 0.1941
vn -0.0849 0.9287 0.3611
vn 0.1302 0.9486 0.2883
vn 0.0308 0.8758 0.4817
vn 0.2047 0.8514 0.4829
vn 0.3304 0.8706 0.3645
vn 0.3362 0.9205 0.1993
vn 0.2219 0.9716 0.0820
vn 0.0520 0.9955 0.0789
usemtl Trees.002
s 1
f 1/1/1 2/2/2 9/3/3
f 2/2/2 3/4/4 9/3/3
f 3/4/4 4/5/5 9/3/3
f 4/5/5 5/6/6 9/3/3
f 5/6/6 6/7/7 9/3/3
f 6/7/7 7/8/8 9/3/3
f 7/8/8 8/9/9 9/3/3
f 8/9/9 1/1/1 9/3/3
f 10/10/10 11/11/11 18/12/12
f 11/11/11 12/13/13 18/12/12
f 12/13/13 13/14/14 18/12/12
f 13/14/14 14/15/15 18/12/12
f 14/15/15 15/16/16 18/12/12
f 15/16/16 16/17/17 18/12/12
f 16/17/17 17/18/18 18/12/12
f 17/18/18 10/10/10 18/12/12
f 19/19/19 20/20/20 27/21/21
f 20/20/20 21/22/22 27/21/21
f 21/22/22 22/23/23 27/21/21
f 22/23/23 23/24/24 27/21/21
f 23/24/24 24/25/25 27/21/21
f 24/25/25 25/26/26 27/21/21
f 25/26/26 26/27/27 27/21/21
f 26/27/27 19/19/19 27/21/21
f 28/28/28 29/29/29 36/30/30
f 29/29/29 30/31/31 36/30/30
f 30/31/31 31/32/32 36/30/30
f 31/32/32 32/33/33 36/30/30
f 32/33/33 33/34/34 36/30/30
f 33/34/34 34/35/35 36/30/30
f 34/35/35 35/36/36 36/30/30
f 35/36/36 28/28/28 36/30/30
f 37/37/37 38/38/38 45/39/39
f 38/38/38 39/40/40 45/39/39
f 39/40/40 40/41/41 45/39/39
f 40/41/41 41/42/42 45/39/39
f 41/42/42 42/43/43 45/39/39
f 42/43/43 43/44/44 45/39/39
f 43/44/44 44/45/45 45/39/39
f 44/45/45 37/37/37 45/39/39
