# Blender v2.79 (sub 0) OBJ File: 'trunk.blend'
# www.blender.org
mtllib trunk_shard9.mtl
o Cylinder_cell.009_Cylinder_cell.026
v 0.135958 -0.271052 -0.116256
v 0.040510 -0.271052 -0.101634
v -0.052969 -0.271052 -0.077430
v -0.143519 -0.271052 -0.043894
v -0.230213 -0.271052 -0.001369
v 0.135724 0.271880 -0.118558
v 0.040044 0.271880 -0.103900
v -0.053662 0.271880 -0.079638
v -0.144432 0.271880 -0.046020
v 0.035146 0.271864 0.095009
v 0.017201 0.271862 0.120107
v -0.031117 0.271865 0.095044
v 0.213953 -0.271052 -0.120212
v 0.210977 -0.204145 -0.120346
v 0.188594 0.271880 -0.121239
v -0.233136 0.058804 -0.001201
v -0.231034 0.125815 -0.002847
v -0.243269 -0.271052 0.006769
v -0.225809 0.271880 -0.006103
v 0.024029 -0.271053 0.145418
v 0.035146 0.271864 0.095009
v 0.017201 0.271862 0.120107
v -0.031117 0.271865 0.095044
v 0.213953 -0.271052 -0.120212
v 0.210977 -0.204145 -0.120346
v 0.188594 0.271880 -0.121239
v -0.243269 -0.271052 0.006769
v -0.233136 0.058804 -0.001201
v -0.231034 0.125815 -0.002847
v -0.225809 0.271880 -0.006103
v 0.024029 -0.271053 0.145418
v 0.040510 -0.271052 -0.101634
v 0.135958 -0.271052 -0.116256
v -0.052969 -0.271052 -0.077430
v -0.143519 -0.271052 -0.043894
v -0.230213 -0.271052 -0.001369
v -0.243269 -0.271052 0.006769
v 0.040044 0.271880 -0.103900
v 0.135724 0.271880 -0.118558
v -0.053662 0.271880 -0.079638
v -0.144432 0.271880 -0.046020
v -0.225809 0.271880 -0.006103
v 0.213953 -0.271052 -0.120212
v 0.188594 0.271880 -0.121239
v 0.024029 -0.271053 0.145418
v 0.017201 0.271862 0.120107
vt 0.426514 0.142681
vt 0.502051 0.037033
vt 0.500868 0.036980
vt 0.430935 0.122632
vt 0.423798 0.132614
vt 0.404580 0.122646
vt 0.327146 0.082417
vt 0.325068 0.083712
vt 0.324232 0.084367
vt 0.320202 0.087537
vt 0.426514 0.142681
vt 0.423798 0.132614
vt 0.491965 0.036624
vt 0.483371 0.898973
vt 0.492202 0.898972
vt 0.495941 0.978380
vt 0.496438 0.989541
vt 0.483411 0.989544
vt 0.467224 0.898984
vt 0.467303 0.989554
vt 0.451077 0.899001
vt 0.451194 0.989572
vt 0.434930 0.899026
vt 0.435087 0.989596
vt 0.432883 0.043520
vt 0.395614 0.053170
vt 0.359512 0.066541
vt 0.327146 0.082417
vt 0.404580 0.122646
vt 0.423798 0.132614
vt 0.430935 0.122632
vt 0.491965 0.036624
vt 0.470938 0.037691
vt 0.433068 0.044422
vt 0.471031 0.038606
vt 0.502051 0.037033
vt 0.426514 0.142681
vt 0.320202 0.087537
vt 0.325394 0.084300
vt 0.359875 0.067387
vt 0.395889 0.054048
vt 0.416412 0.989633
vt 0.418419 0.934603
vt 0.418836 0.923423
vt 0.418979 0.989627
vt 0.419810 0.899055
vn 0.8129 0.0373 0.5812
vn -0.4607 0.0362 0.8868
vn -0.4602 0.0356 0.8871
vn 0.8149 0.0394 0.5783
vn -0.1011 -0.0042 -0.9948
vn -0.0506 -0.0042 -0.9987
vn -0.2013 -0.0042 -0.9795
vn -0.2994 -0.0042 -0.9541
vn -0.3943 -0.0042 -0.9189
vn 0.0000 1.0000 0.0001
vn 0.0000 -1.0000 0.0000
vn -0.5289 -0.0042 -0.8486
vn -0.4415 -0.0042 -0.8972
vn -0.4853 -0.0042 -0.8743
vn -0.4404 -0.0042 -0.8978
usemtl None
s off
f 45/1/1 13/2/1 14/3/1 10/4/1 46/5/1
f 12/6/2 19/7/2 29/8/2 16/9/2
f 16/9/3 18/10/3 20/11/3 11/12/3 12/6/3
f 14/3/4 15/13/4 10/4/4
f 39/14/5 44/15/6 25/16/6 43/17/6 33/18/5
f 38/19/7 39/14/5 33/18/5 32/20/7
f 40/21/8 38/19/7 32/20/7 34/22/8
f 41/23/9 40/21/8 34/22/8 35/24/9
f 7/25/10 8/26/10 9/27/10 42/28/10 23/29/10 22/30/10 21/31/10 26/32/10 6/33/10
f 2/34/11 1/35/11 24/36/11 31/37/11 37/38/11 36/39/11 4/40/11 3/41/11
f 27/42/12 28/43/12 17/44/13 5/45/14
f 17/44/13 30/46/15 41/23/9 35/24/9 5/45/14
